<svg width="164" height="41" viewBox="0 0 164 41" fill="none" xmlns="http://www.w3.org/2000/svg">
<path d="M24.408 27.232L29.088 11.44H35.328L40.008 27.232L39.504 28H36L35.184 25.048H29.232L28.416 28H24.912L24.408 27.232ZM30.336 21.28H34.08L32.352 15.208H32.064L30.336 21.28ZM41.9423 23.968V15.232H45.9503V24.208C45.9503 24.416 46.0543 24.52 46.2623 24.52H49.1183V15.232H53.1263V28H45.9743C43.2863 28 41.9423 26.656 41.9423 23.968ZM56.286 23.968V11.44H60.294V15.232H64.206V18.712H60.294V24.208C60.294 24.416 60.398 24.52 60.606 24.52H64.446V26.752L62.766 28H60.318C57.63 28 56.286 26.656 56.286 23.968ZM66.7603 23.968V19.264C66.7603 16.576 68.1043 15.232 70.7923 15.232H74.1523C76.8403 15.232 78.1843 16.576 78.1843 19.264V23.968C78.1843 26.656 76.8403 28 74.1523 28H70.7923C68.1043 28 66.7603 26.656 66.7603 23.968ZM70.7683 24.208C70.7683 24.416 70.8723 24.52 71.0803 24.52H73.8643C74.0723 24.52 74.1763 24.416 74.1763 24.208V19.024C74.1763 18.816 74.0723 18.712 73.8643 18.712H71.0803C70.8723 18.712 70.7683 18.816 70.7683 19.024V24.208ZM81.4892 28V11.44H86.3372L90.5612 20.464L94.7852 11.44H99.6332V28H95.4572V19.072L92.2412 25.96H88.8812L85.6652 19.072V28H81.4892ZM101.916 27.232L106.596 11.44H112.836L117.516 27.232L117.012 28H113.508L112.692 25.048H106.74L105.924 28H102.42L101.916 27.232ZM107.844 21.28H111.588L109.86 15.208H109.572L107.844 21.28ZM117.295 15.208V11.44H131.071V15.208H126.271V28H122.095V15.208H117.295ZM133.28 23.776V15.664C133.28 12.848 134.688 11.44 137.504 11.44H143.72L145.592 12.88V15.208H137.72C137.544 15.208 137.456 15.296 137.456 15.472V23.968C137.456 24.144 137.544 24.232 137.72 24.232H145.592V26.56L143.72 28H137.504C134.688 28 133.28 26.592 133.28 23.776ZM148.661 28V11.44H152.837V17.68H157.829V11.44H162.005V28H157.829V21.448H152.837V28H148.661Z" fill="white"/>
<path d="M19.95 1.81882C19.95 0.814321 20.5768 0 21.35 0H26.6C27.3732 0 28 0.814321 28 1.81882V10.9129C28 11.9174 27.3732 12.7317 26.6 12.7317H25.2V38.6499C25.2 39.4032 24.7299 40.014 24.15 40.014C23.5701 40.014 23.1 39.4032 23.1 38.6499V12.7317H21.35C20.5768 12.7317 19.95 11.9174 19.95 10.9129V1.81882ZM17.919 3.63763C18.1325 3.63763 18.3432 3.65693 18.55 3.6944V6.4729C18.3477 6.40291 18.1362 6.36586 17.919 6.36586H7.28272C6.15849 6.36586 5.17853 7.35988 4.90587 8.77681L3.79481 14.5505H21.7V31.8293H20.2986L20.3 34.097C20.3 34.348 20.4567 34.5517 20.65 34.5517H21.7V37.2799H20.65C19.2969 37.2799 18.2 35.8549 18.2 34.097L18.1986 31.8293H7.0056L7.00571 34.097C7.00571 35.8549 5.90881 37.2799 4.55571 37.2799H2.45C1.0969 37.2799 0 35.8549 0 34.097V18.6429C0 17.1609 0.606424 15.8628 1.51448 15.1447L1.8046 13.6411H1.05C0.51842 13.6411 0.079114 13.1279 0.00959001 12.4621L0 12.277C0 11.5864 0.39501 11.0157 0.907522 10.9254L1.05 10.9129H2.3282L2.86857 8.11513C3.37495 5.48368 5.19487 3.63763 7.28272 3.63763H17.919ZM4.9056 31.8293H2.0986L2.1 34.097C2.1 34.348 2.2567 34.5517 2.45 34.5517H4.55571C4.74901 34.5517 4.90571 34.348 4.90571 34.097L4.9056 31.8293ZM15.051 23.6446H10.1486L10.0061 23.657C9.49361 23.7474 9.09859 24.3181 9.09859 25.0087C9.09859 25.6993 9.49361 26.2701 10.0061 26.3605L10.1486 26.3728H15.051L15.1935 26.3605C15.706 26.2701 16.101 25.6993 16.101 25.0087C16.101 24.2554 15.631 23.6446 15.051 23.6446ZM19.6 20.007C18.8268 20.007 18.2 20.8213 18.2 21.8258C18.2 22.8302 18.8268 23.6444 19.6 23.6444C20.3731 23.6444 20.9999 22.8302 20.9999 21.8258C20.9999 20.8213 20.3731 20.007 19.6 20.007ZM5.59996 20.007C4.82678 20.007 4.2 20.8213 4.2 21.8258C4.2 22.8302 4.82678 23.6444 5.59996 23.6444C6.37315 23.6444 6.99993 22.8302 6.99993 21.8258C6.99993 20.8213 6.37315 20.007 5.59996 20.007Z" fill="#F5F5F5"/>
</svg>
