<svg width="164" height="41" viewBox="0 0 164 41" fill="none" xmlns="http://www.w3.org/2000/svg">
<path d="M24.4079 27.232L29.0879 11.44H35.3279L40.0079 27.232L39.5039 28H35.9999L35.1839 25.048H29.2319L28.4159 28H24.9119L24.4079 27.232ZM30.3359 21.28H34.0799L32.3519 15.208H32.0639L30.3359 21.28ZM41.9421 23.968V15.232H45.9501V24.208C45.9501 24.416 46.0541 24.52 46.2621 24.52H49.1181V15.232H53.1261V28H45.9741C43.2861 28 41.9421 26.656 41.9421 23.968ZM56.2859 23.968V11.44H60.2939V15.232H64.2059V18.712H60.2939V24.208C60.2939 24.416 60.3979 24.52 60.6059 24.52H64.4459V26.752L62.7659 28H60.3179C57.6299 28 56.2859 26.656 56.2859 23.968ZM66.7602 23.968V19.264C66.7602 16.576 68.1042 15.232 70.7922 15.232H74.1522C76.8402 15.232 78.1842 16.576 78.1842 19.264V23.968C78.1842 26.656 76.8402 28 74.1522 28H70.7922C68.1042 28 66.7602 26.656 66.7602 23.968ZM70.7682 24.208C70.7682 24.416 70.8722 24.52 71.0802 24.52H73.8642C74.0722 24.52 74.1762 24.416 74.1762 24.208V19.024C74.1762 18.816 74.0722 18.712 73.8642 18.712H71.0802C70.8722 18.712 70.7682 18.816 70.7682 19.024V24.208ZM81.4891 28V11.44H86.3371L90.5611 20.464L94.7851 11.44H99.6331V28H95.4571V19.072L92.2411 25.96H88.8811L85.6651 19.072V28H81.4891ZM101.916 27.232L106.596 11.44H112.836L117.516 27.232L117.012 28H113.508L112.692 25.048H106.74L105.924 28H102.42L101.916 27.232ZM107.844 21.28H111.588L109.86 15.208H109.572L107.844 21.28ZM117.295 15.208V11.44H131.071V15.208H126.271V28H122.095V15.208H117.295ZM133.28 23.776V15.664C133.28 12.848 134.688 11.44 137.504 11.44H143.72L145.592 12.88V15.208H137.72C137.544 15.208 137.456 15.296 137.456 15.472V23.968C137.456 24.144 137.544 24.232 137.72 24.232H145.592V26.56L143.72 28H137.504C134.688 28 133.28 26.592 133.28 23.776ZM148.661 28V11.44H152.837V17.68H157.829V11.44H162.005V28H157.829V21.448H152.837V28H148.661Z" fill="white"/>
<path d="M19.9499 1.81882C19.9499 0.814321 20.5767 0 21.3499 0H26.5999C27.3731 0 27.9999 0.814321 27.9999 1.81882V10.9129C27.9999 11.9174 27.3731 12.7317 26.5999 12.7317H25.1999V38.6499C25.1999 39.4032 24.7298 40.014 24.1499 40.014C23.57 40.014 23.0999 39.4032 23.0999 38.6499V12.7317H21.3499C20.5767 12.7317 19.9499 11.9174 19.9499 10.9129V1.81882ZM17.9189 3.63763C18.1324 3.63763 18.3431 3.65693 18.5499 3.6944V6.4729C18.3476 6.40291 18.136 6.36586 17.9189 6.36586H7.28259C6.15837 6.36586 5.17841 7.35988 4.90574 8.77681L3.79469 14.5505H21.6999V31.8293H20.2985L20.2999 34.097C20.2999 34.348 20.4565 34.5517 20.6499 34.5517H21.6999V37.2799H20.6499C19.2968 37.2799 18.1999 35.8549 18.1999 34.097L18.1985 31.8293H7.00548L7.00559 34.097C7.00559 35.8549 5.90869 37.2799 4.55559 37.2799H2.44988C1.09678 37.2799 -0.00012207 35.8549 -0.00012207 34.097V18.6429C-0.00012207 17.1609 0.606302 15.8628 1.51436 15.1447L1.80448 13.6411H1.04988C0.518298 13.6411 0.0789919 13.1279 0.00946794 12.4621L-0.00012207 12.277C-0.00012207 11.5864 0.394888 11.0157 0.9074 10.9254L1.04988 10.9129H2.32808L2.86845 8.11513C3.37483 5.48368 5.19475 3.63763 7.28259 3.63763H17.9189ZM4.90548 31.8293H2.09848L2.09988 34.097C2.09988 34.348 2.25658 34.5517 2.44988 34.5517H4.55559C4.74889 34.5517 4.90559 34.348 4.90559 34.097L4.90548 31.8293ZM15.0509 23.6446H10.1485L10.006 23.657C9.49349 23.7474 9.09846 24.3181 9.09846 25.0087C9.09846 25.6993 9.49349 26.2701 10.006 26.3605L10.1485 26.3728H15.0509L15.1934 26.3605C15.7059 26.2701 16.1009 25.6993 16.1009 25.0087C16.1009 24.2554 15.6309 23.6446 15.0509 23.6446ZM19.5999 20.007C18.8267 20.007 18.1999 20.8213 18.1999 21.8258C18.1999 22.8302 18.8267 23.6444 19.5999 23.6444C20.373 23.6444 20.9997 22.8302 20.9997 21.8258C20.9997 20.8213 20.373 20.007 19.5999 20.007ZM5.59984 20.007C4.82666 20.007 4.19988 20.8213 4.19988 21.8258C4.19988 22.8302 4.82666 23.6444 5.59984 23.6444C6.37303 23.6444 6.99981 22.8302 6.99981 21.8258C6.99981 20.8213 6.37303 20.007 5.59984 20.007Z" fill="#F5F5F5"/>
</svg>
