<svg width="28" height="49" viewBox="0 0 28 49" fill="none" xmlns="http://www.w3.org/2000/svg">
<path id="Vector" d="M19.95 3.11479C19.95 1.93038 20.5768 0.970215 21.35 0.970215H26.6C27.3732 0.970215 28 1.93038 28 3.11479V13.8377C28 15.0221 27.3732 15.9822 26.6 15.9822H25.2V46.5424C25.2 47.4307 24.7299 48.1509 24.15 48.1509C23.5701 48.1509 23.1 47.4307 23.1 46.5424V15.9822H21.35C20.5768 15.9822 19.95 15.0221 19.95 13.8377V3.11479ZM17.919 5.25937C18.1325 5.25937 18.3432 5.28212 18.55 5.3263V8.60244C18.3477 8.51991 18.1362 8.47623 17.919 8.47623H7.28272C6.15849 8.47623 5.17853 9.64828 4.90587 11.319L3.79481 18.1268H21.7V38.5003H20.2986L20.3 41.1741C20.3 41.4701 20.4567 41.7103 20.65 41.7103H21.7V44.9271H20.65C19.2969 44.9271 18.2 43.2469 18.2 41.1741L18.1986 38.5003H7.0056L7.00571 41.1741C7.00571 43.2469 5.90881 44.9271 4.55571 44.9271H2.45C1.0969 44.9271 0 43.2469 0 41.1741V22.9521C0 21.2047 0.606424 19.6741 1.51448 18.8274L1.8046 17.0545H1.05C0.51842 17.0545 0.079114 16.4494 0.00959001 15.6644L0 15.4461C0 14.6318 0.39501 13.9589 0.907522 13.8524L1.05 13.8377H2.3282L2.86857 10.5388C3.37495 7.43605 5.19487 5.25937 7.28272 5.25937H17.919ZM4.9056 38.5003H2.0986L2.1 41.1741C2.1 41.4701 2.2567 41.7103 2.45 41.7103H4.55571C4.74901 41.7103 4.90571 41.4701 4.90571 41.1741L4.9056 38.5003ZM15.051 28.8497H10.1486L10.0061 28.8643C9.49361 28.9709 9.09859 29.6438 9.09859 30.4581C9.09859 31.2724 9.49361 31.9454 10.0061 32.052L10.1486 32.0666H15.051L15.1935 32.052C15.706 31.9454 16.101 31.2724 16.101 30.4581C16.101 29.5698 15.631 28.8497 15.051 28.8497ZM19.6 24.5605C18.8268 24.5605 18.2 25.5207 18.2 26.7051C18.2 27.8894 18.8268 28.8495 19.6 28.8495C20.3731 28.8495 20.9999 27.8894 20.9999 26.7051C20.9999 25.5207 20.3731 24.5605 19.6 24.5605ZM5.59996 24.5605C4.82678 24.5605 4.2 25.5207 4.2 26.7051C4.2 27.8894 4.82678 28.8495 5.59996 28.8495C6.37315 28.8495 6.99993 27.8894 6.99993 26.7051C6.99993 25.5207 6.37315 24.5605 5.59996 24.5605Z" fill="white"/>
</svg>
