<svg width="17" height="21" viewBox="0 0 17 21" fill="none" xmlns="http://www.w3.org/2000/svg">
<path id="Vector" d="M13.9302 12.307C15.172 12.3354 16.1554 13.365 16.127 14.6068L16.106 15.5249C16.0928 16.0982 15.9009 16.653 15.5569 17.1117C13.9619 19.2389 11.4137 20.2526 7.9944 20.1743C4.5743 20.0959 2.07654 18.9663 0.584336 16.7672C0.26313 16.2938 0.0975477 15.7321 0.110646 15.1601L0.131707 14.2405C0.160144 12.9987 1.18978 12.0152 2.43148 12.0437L13.9302 12.307ZM8.45222 0.183078C11.2129 0.246299 13.3997 2.53554 13.3364 5.29624C13.2732 8.05695 10.9839 10.2437 8.22327 10.1805C5.46253 10.1173 3.27579 7.828 3.33902 5.06729C3.40224 2.3066 5.69148 0.119855 8.45222 0.183078Z" fill="#FAFBFD"/>
</svg>
